<svg width="110" height="131" viewBox="0 0 110 131" fill="none" xmlns="http://www.w3.org/2000/svg">
<path d="M23.67 72.6481V85.0479H19.604V72.6481H14.5941V69.5117H28.6799V72.6481H23.67Z" fill="white"/>
<path d="M35.5775 81.0362L34.2706 85.0479H29.9868L35.5775 69.5117H40.5148L46.1056 85.0479H41.6766L40.3696 81.0362H35.5775ZM36.594 77.8268H39.4983L38.0462 73.0128L36.594 77.8268Z" fill="white"/>
<path d="M61.8614 74.3257H57.7954C57.6502 73.0128 56.9241 72.2105 55.6172 72.2105C54.6733 72.2105 54.0924 72.6481 54.0924 73.5963C54.0924 74.6175 54.8185 75.201 57.3597 75.7845C60.7723 76.5869 62.1518 78.3374 62.1518 80.6715C62.1518 83.8079 59.1749 85.3397 56.0528 85.3397C52.132 85.3397 49.4455 83.735 49.2277 80.2339H53.2937C53.5842 81.6927 54.7459 82.3491 55.9802 82.3491C57.0693 82.3491 57.9406 81.7656 57.9406 80.8903C57.9406 80.088 57.3597 79.3586 55.4719 78.9209C51.9142 78.0457 49.8812 76.9516 49.8812 73.8152C49.8812 70.8246 52.6403 69.147 55.7624 69.147C59.8284 69.147 61.4983 71.4081 61.8614 74.3257Z" fill="white"/>
<path d="M74.9307 72.6481V85.0479H70.9373V72.6481H65.8548V69.5117H80.0132V72.6481H74.9307Z" fill="white"/>
<path d="M92.5743 85.0479H88.5083V79.0668L83.0627 69.5117H87.637L90.6865 75.6386L93.5908 69.5117H98.0198L92.5743 79.0668V85.0479Z" fill="white"/>
<path d="M26.429 98.1041C26.429 100.73 24.3234 101.97 22.4356 102.189C21.7096 102.262 21.2739 102.262 20.4026 102.262H14.8845V88.3302H20.5479C21.2739 88.3302 21.637 88.3302 22.2904 88.4031C24.5413 88.6949 25.8482 90.1537 25.8482 91.9772C25.8482 93.2171 25.1947 94.2383 23.8152 94.6759C25.6304 95.2595 26.429 96.4265 26.429 98.1041ZM18.5149 93.8736H20.1122C20.4026 93.8736 20.7657 93.8736 20.9835 93.8007C21.637 93.7277 22.0726 93.363 22.0726 92.5607C22.0726 91.7583 21.637 91.3936 20.9835 91.3207C20.6931 91.2478 20.4026 91.2478 20.1122 91.2478H18.5149V93.8736ZM22.7261 97.9582C22.7261 97.01 22.0726 96.5724 21.3465 96.4994C21.0561 96.4994 20.7657 96.4994 20.4753 96.4994H18.6601V99.49H20.6205C20.9109 99.49 21.2739 99.49 21.4918 99.49C22 99.417 22.7261 98.9065 22.7261 97.9582Z" fill="white"/>
<path d="M40.5875 96.2077C40.5875 96.9371 40.5875 97.3018 40.5149 98.1771C40.3696 100.511 38.6997 102.626 34.4158 102.626C30.132 102.626 28.5347 100.511 28.3168 98.1771C28.2442 97.3747 28.2442 96.9371 28.2442 96.2077V88.4031H31.8746V96.8641C31.8746 97.2288 31.8746 97.4476 31.8746 97.6665C31.9472 99.1253 32.8185 99.9276 34.3432 99.9276C35.9406 99.9276 36.7393 99.1253 36.8845 97.6665C36.8845 97.4476 36.8845 97.2288 36.8845 96.8641V88.4031H40.5149V96.2077H40.5875Z" fill="white"/>
<path d="M54.8185 102.262H50.8977C50.6073 101.241 50.3894 100.438 50.2442 99.49C50.099 97.9582 49.4455 97.083 48.5742 97.01C48.1386 97.01 47.8482 97.01 47.4125 97.01H46.6139V102.262H42.9835V88.3302H48.5016C49.3729 88.3302 49.9538 88.3302 50.6799 88.4031C52.7129 88.6219 54.4554 89.6431 54.4554 92.123C54.4554 93.8736 53.5115 95.0406 51.6964 95.5512C53.1485 96.0618 53.6568 97.1559 53.8746 98.8335C53.9472 100.511 54.2376 101.459 54.8185 102.262ZM47.9208 94.3842C48.2838 94.3842 48.6469 94.3842 48.8647 94.3842C49.8086 94.3112 50.6072 93.9465 50.6072 92.7795C50.6072 91.6125 49.8812 91.3207 48.9373 91.1748C48.6469 91.1748 48.3564 91.1748 47.9934 91.1748H46.6139V94.3842H47.9208Z" fill="white"/>
<path d="M69.3399 94.8948V102.335H66.5083L66.1452 100.219L65.5644 101.751C64.7657 102.408 63.8218 102.626 62.3697 102.626C58.6667 102.626 56.1254 100.146 56.1254 95.4783C56.1254 90.6642 59.3928 88.1114 63.1683 88.1114C67.0891 88.1114 69.1221 90.2266 69.4126 92.9983V93.2171H65.7822L65.7096 92.9983C65.4192 91.5395 64.4753 90.8101 63.0231 90.8101C61.2805 90.8101 59.8284 92.2689 59.8284 95.2595C59.8284 98.7606 61.3531 99.9276 63.0231 99.9276C64.4027 99.9276 65.3465 99.2712 65.8548 97.7394H63.1683V94.8948H69.3399Z" fill="white"/>
<path d="M82.4819 102.262H71.8812V88.4031H82.264V91.2478H75.439V93.9465H81.8284V96.7183H75.439V99.49H82.4819V102.262Z" fill="white"/>
<path d="M96.495 102.262H92.5743C92.2838 101.241 92.066 100.438 91.9208 99.49C91.7756 97.9582 91.1221 97.083 90.2508 97.01C89.8152 97.01 89.5248 97.01 89.0891 97.01H88.2904V102.262H84.6601V88.3302H90.1782C91.0495 88.3302 91.6304 88.3302 92.3564 88.4031C94.3894 88.6219 96.132 89.6431 96.132 92.123C96.132 93.8736 95.1881 95.0406 93.3729 95.5512C94.8251 96.0618 95.3333 97.1559 95.5512 98.8335C95.6238 100.511 95.9868 101.459 96.495 102.262ZM89.5974 94.3842C89.9604 94.3842 90.3234 94.3842 90.5413 94.3842C91.4851 94.3112 92.2838 93.9465 92.2838 92.7795C92.2838 91.6125 91.5578 91.3207 90.6139 91.1748C90.3234 91.1748 90.033 91.1748 89.67 91.1748H88.2904V94.3842H89.5974Z" fill="white"/>
<path d="M80.6667 46.0251H31.2211C22.4356 46.0251 15.3927 53.1732 15.3927 61.9259V64.6977H96.495V61.9259C96.495 53.1002 89.3795 46.0251 80.6667 46.0251Z" fill="white"/>
<path d="M80.6667 124.362H31.2211C22.4356 124.362 15.3927 117.214 15.3927 108.462V105.69H96.495V108.462C96.495 117.214 89.3795 124.362 80.6667 124.362Z" fill="white"/>
<path d="M57.0693 17.0679H54.7459V55.3614H57.0693V17.0679Z" fill="white"/>
<path d="M78.4885 24.4348L67.0891 31.8747L55.6898 39.2416L55.0363 25.6748L54.3102 12.0351L66.363 18.235L78.4885 24.4348Z" fill="white"/>
</svg>
